<mxfile host="app.diagrams.net" modified="2024-05-18T13:02:27.915Z" agent="Mozilla/5.0 (Windows NT 10.0; Win64; x64; rv:126.0) Gecko/20100101 Firefox/126.0" etag="5b7wpm01m6Rv3Fd_Rp8G" version="24.4.4" type="device">
  <diagram name="1 oldal" id="6zQTtP4uaLJA1BLp3F3S">
    <mxGraphModel dx="1500" dy="809" grid="1" gridSize="10" guides="1" tooltips="1" connect="1" arrows="1" fold="1" page="1" pageScale="1" pageWidth="1169" pageHeight="827" background="none" math="0" shadow="0">
      <root>
        <mxCell id="0" />
        <mxCell id="1" parent="0" />
        <mxCell id="jjP7BGZga-dTE0e2yt80-4" value="" style="endArrow=none;html=1;rounded=0;entryX=0.5;entryY=1;entryDx=0;entryDy=0;fontColor=default;fillColor=#1ba1e2;strokeColor=#ff0000;" parent="1" target="jjP7BGZga-dTE0e2yt80-49" edge="1">
          <mxGeometry width="50" height="50" relative="1" as="geometry">
            <mxPoint x="241" y="288" as="sourcePoint" />
            <mxPoint x="241" y="168" as="targetPoint" />
            <Array as="points" />
          </mxGeometry>
        </mxCell>
        <mxCell id="jjP7BGZga-dTE0e2yt80-5" value="" style="endArrow=none;html=1;rounded=0;fontColor=default;fillColor=#1ba1e2;strokeColor=#ff0000;strokeWidth=4;" parent="1" edge="1">
          <mxGeometry width="50" height="50" relative="1" as="geometry">
            <mxPoint x="240" y="288" as="sourcePoint" />
            <mxPoint x="880" y="288" as="targetPoint" />
            <Array as="points" />
          </mxGeometry>
        </mxCell>
        <mxCell id="jjP7BGZga-dTE0e2yt80-6" value="" style="endArrow=none;html=1;rounded=0;entryX=0.5;entryY=1;entryDx=0;entryDy=0;fontColor=default;fillColor=#1ba1e2;strokeColor=#ff0000;" parent="1" target="jjP7BGZga-dTE0e2yt80-48" edge="1">
          <mxGeometry width="50" height="50" relative="1" as="geometry">
            <mxPoint x="440" y="288" as="sourcePoint" />
            <mxPoint x="440" y="168" as="targetPoint" />
            <Array as="points" />
          </mxGeometry>
        </mxCell>
        <mxCell id="jjP7BGZga-dTE0e2yt80-9" value="&lt;font style=&quot;font-size: 19px;&quot; face=&quot;Verdana&quot;&gt;Internet&lt;/font&gt;" style="ellipse;shape=cloud;whiteSpace=wrap;html=1;fillColor=default;fontColor=default;" parent="1" vertex="1">
          <mxGeometry x="560" y="596" width="160" height="110" as="geometry" />
        </mxCell>
        <mxCell id="jjP7BGZga-dTE0e2yt80-12" value="" style="html=1;whiteSpace=wrap;shape=isoCube2;backgroundOutline=1;isoAngle=15;fontColor=default;" parent="1" vertex="1">
          <mxGeometry x="870" y="228" width="80" height="109" as="geometry" />
        </mxCell>
        <mxCell id="jjP7BGZga-dTE0e2yt80-13" value="&lt;font color=&quot;#ff0000&quot; style=&quot;font-size: 18px;&quot;&gt;Upstream server&lt;/font&gt;" style="text;html=1;whiteSpace=wrap;overflow=hidden;rounded=0;align=center;textShadow=0;labelBorderColor=none;labelBackgroundColor=none;fontColor=default;" parent="1" vertex="1">
          <mxGeometry x="805" y="188" width="210" height="30" as="geometry" />
        </mxCell>
        <mxCell id="jjP7BGZga-dTE0e2yt80-21" value="&lt;font style=&quot;font-size: 20px;&quot;&gt;&lt;font style=&quot;font-size: 20px;&quot; face=&quot;Verdana&quot;&gt;&amp;nbsp; &amp;nbsp;&lt;/font&gt;&lt;span style=&quot;font-family: Verdana; background-color: initial;&quot;&gt;&lt;font style=&quot;font-size: 20px;&quot;&gt;TOE&lt;/font&gt;&lt;/span&gt;&lt;/font&gt;" style="rounded=0;whiteSpace=wrap;html=1;align=left;" parent="1" vertex="1">
          <mxGeometry x="778" y="370" width="263" height="80" as="geometry" />
        </mxCell>
        <mxCell id="jjP7BGZga-dTE0e2yt80-26" value="" style="endArrow=none;html=1;rounded=0;exitX=0.5;exitY=0;exitDx=0;exitDy=0;exitPerimeter=0;entryX=0.5;entryY=1;entryDx=0;entryDy=0;" parent="1" source="jjP7BGZga-dTE0e2yt80-27" target="jjP7BGZga-dTE0e2yt80-21" edge="1">
          <mxGeometry width="50" height="50" relative="1" as="geometry">
            <mxPoint x="920" y="531" as="sourcePoint" />
            <mxPoint x="915" y="461" as="targetPoint" />
          </mxGeometry>
        </mxCell>
        <mxCell id="jjP7BGZga-dTE0e2yt80-27" value="" style="html=1;whiteSpace=wrap;shape=isoCube2;backgroundOutline=1;isoAngle=15;fontColor=default;" parent="1" vertex="1">
          <mxGeometry x="870" y="480" width="80" height="109" as="geometry" />
        </mxCell>
        <mxCell id="jjP7BGZga-dTE0e2yt80-29" value="" style="endArrow=none;html=1;rounded=0;strokeColor=#006eaf;entryX=0;entryY=0.5;entryDx=0;entryDy=0;entryPerimeter=0;strokeWidth=4;" parent="1" target="jjP7BGZga-dTE0e2yt80-27" edge="1">
          <mxGeometry width="50" height="50" relative="1" as="geometry">
            <mxPoint x="240" y="535" as="sourcePoint" />
            <mxPoint x="920" y="620" as="targetPoint" />
          </mxGeometry>
        </mxCell>
        <mxCell id="jjP7BGZga-dTE0e2yt80-30" value="&lt;font color=&quot;#006eaf&quot; style=&quot;font-size: 18px;&quot;&gt;Downstream server&lt;/font&gt;" style="text;html=1;whiteSpace=wrap;overflow=hidden;rounded=0;align=center;" parent="1" vertex="1">
          <mxGeometry x="790" y="599" width="240" height="30" as="geometry" />
        </mxCell>
        <mxCell id="jjP7BGZga-dTE0e2yt80-33" value="" style="triangle;whiteSpace=wrap;html=1;rotation=90;strokeColor=#FA3737;gradientColor=none;fillColor=#FA3737;shadow=0;rounded=0;" parent="1" vertex="1">
          <mxGeometry x="896.25" y="390" width="27.5" height="40" as="geometry" />
        </mxCell>
        <mxCell id="jjP7BGZga-dTE0e2yt80-35" value="" style="endArrow=none;html=1;rounded=0;strokeColor=#FA3737;" parent="1" edge="1">
          <mxGeometry width="50" height="50" relative="1" as="geometry">
            <mxPoint x="885" y="423" as="sourcePoint" />
            <mxPoint x="935" y="423" as="targetPoint" />
          </mxGeometry>
        </mxCell>
        <mxCell id="jjP7BGZga-dTE0e2yt80-39" value="" style="endArrow=none;html=1;rounded=0;strokeColor=#006eaf;exitX=0.506;exitY=0.097;exitDx=0;exitDy=0;exitPerimeter=0;" parent="1" source="jjP7BGZga-dTE0e2yt80-9" edge="1">
          <mxGeometry width="50" height="50" relative="1" as="geometry">
            <mxPoint x="640" y="617" as="sourcePoint" />
            <mxPoint x="640" y="533" as="targetPoint" />
          </mxGeometry>
        </mxCell>
        <mxCell id="jjP7BGZga-dTE0e2yt80-42" value="" style="endArrow=none;html=1;rounded=0;exitX=0.5;exitY=0;exitDx=0;exitDy=0;strokeColor=#006eaf;" parent="1" source="jjP7BGZga-dTE0e2yt80-43" edge="1">
          <mxGeometry width="50" height="50" relative="1" as="geometry">
            <mxPoint x="440" y="673" as="sourcePoint" />
            <mxPoint x="440" y="533" as="targetPoint" />
          </mxGeometry>
        </mxCell>
        <mxCell id="jjP7BGZga-dTE0e2yt80-43" value="&lt;font face=&quot;Verdana&quot;&gt;&lt;span style=&quot;font-size: 25px;&quot;&gt;PC&lt;/span&gt;&lt;/font&gt;" style="rounded=0;whiteSpace=wrap;html=1;fontColor=default;" parent="1" vertex="1">
          <mxGeometry x="365" y="616" width="150" height="70" as="geometry" />
        </mxCell>
        <mxCell id="jjP7BGZga-dTE0e2yt80-44" value="&lt;font face=&quot;Verdana&quot;&gt;&lt;span style=&quot;font-size: 25px;&quot;&gt;PC&lt;/span&gt;&lt;/font&gt;" style="rounded=0;whiteSpace=wrap;html=1;fontColor=default;" parent="1" vertex="1">
          <mxGeometry x="165" y="616" width="150" height="70" as="geometry" />
        </mxCell>
        <mxCell id="jjP7BGZga-dTE0e2yt80-45" value="" style="endArrow=none;html=1;rounded=0;strokeColor=#006eaf;exitX=0.5;exitY=0;exitDx=0;exitDy=0;endSize=6;startSize=6;" parent="1" source="jjP7BGZga-dTE0e2yt80-44" edge="1">
          <mxGeometry width="50" height="50" relative="1" as="geometry">
            <mxPoint x="240" y="673" as="sourcePoint" />
            <mxPoint x="240" y="533" as="targetPoint" />
          </mxGeometry>
        </mxCell>
        <mxCell id="jjP7BGZga-dTE0e2yt80-46" value="&lt;font color=&quot;#ff0000&quot; style=&quot;font-size: 27px;&quot; face=&quot;Verdana&quot;&gt;&lt;span style=&quot;&quot;&gt;HIGH Security Level&lt;/span&gt;&lt;/font&gt;" style="text;html=1;align=center;verticalAlign=middle;whiteSpace=wrap;rounded=0;" parent="1" vertex="1">
          <mxGeometry x="744.5" y="102" width="330" height="65" as="geometry" />
        </mxCell>
        <mxCell id="jjP7BGZga-dTE0e2yt80-47" value="&lt;font color=&quot;#006eaf&quot; style=&quot;font-size: 27px;&quot; face=&quot;Verdana&quot;&gt;&lt;span style=&quot;&quot;&gt;LOW Security Level&lt;/span&gt;&lt;/font&gt;" style="text;html=1;align=center;verticalAlign=middle;whiteSpace=wrap;rounded=0;" parent="1" vertex="1">
          <mxGeometry x="737.5" y="649" width="345" height="65" as="geometry" />
        </mxCell>
        <mxCell id="jjP7BGZga-dTE0e2yt80-48" value="&lt;font face=&quot;Verdana&quot;&gt;&lt;span style=&quot;font-size: 25px;&quot;&gt;PC&lt;/span&gt;&lt;/font&gt;" style="rounded=0;whiteSpace=wrap;html=1;fontColor=default;" parent="1" vertex="1">
          <mxGeometry x="365" y="148" width="150" height="70" as="geometry" />
        </mxCell>
        <mxCell id="jjP7BGZga-dTE0e2yt80-49" value="&lt;font face=&quot;Verdana&quot;&gt;&lt;span style=&quot;font-size: 25px;&quot;&gt;PC&lt;/span&gt;&lt;/font&gt;" style="rounded=0;whiteSpace=wrap;html=1;fontColor=default;" parent="1" vertex="1">
          <mxGeometry x="166" y="148" width="150" height="70" as="geometry" />
        </mxCell>
        <mxCell id="jjP7BGZga-dTE0e2yt80-50" value="" style="endArrow=none;html=1;rounded=0;strokeColor=#FA3737;entryX=0.5;entryY=0;entryDx=0;entryDy=0;" parent="1" target="jjP7BGZga-dTE0e2yt80-21" edge="1">
          <mxGeometry width="50" height="50" relative="1" as="geometry">
            <mxPoint x="910" y="450" as="sourcePoint" />
            <mxPoint x="920" y="420" as="targetPoint" />
          </mxGeometry>
        </mxCell>
        <mxCell id="eo4pqo2-vpqVIrfn1Ed6-1" value="" style="endArrow=none;html=1;rounded=0;fontSize=12;startSize=8;endSize=8;curved=1;entryX=0.5;entryY=1;entryDx=0;entryDy=0;entryPerimeter=0;exitX=0.5;exitY=0;exitDx=0;exitDy=0;" parent="1" source="jjP7BGZga-dTE0e2yt80-21" target="jjP7BGZga-dTE0e2yt80-12" edge="1">
          <mxGeometry width="50" height="50" relative="1" as="geometry">
            <mxPoint x="580" y="420" as="sourcePoint" />
            <mxPoint x="630" y="370" as="targetPoint" />
          </mxGeometry>
        </mxCell>
        <mxCell id="eo4pqo2-vpqVIrfn1Ed6-4" value="&lt;font face=&quot;Verdana&quot;&gt;&lt;span style=&quot;font-size: 25px;&quot;&gt;PC&lt;/span&gt;&lt;/font&gt;" style="rounded=0;whiteSpace=wrap;html=1;fontColor=default;" parent="1" vertex="1">
          <mxGeometry x="565" y="148" width="150" height="70" as="geometry" />
        </mxCell>
        <mxCell id="eo4pqo2-vpqVIrfn1Ed6-5" value="" style="endArrow=none;html=1;rounded=0;fontSize=12;startSize=8;endSize=8;curved=1;exitX=0.5;exitY=1;exitDx=0;exitDy=0;strokeColor=#ff0000;" parent="1" source="eo4pqo2-vpqVIrfn1Ed6-4" edge="1">
          <mxGeometry width="50" height="50" relative="1" as="geometry">
            <mxPoint x="640" y="430" as="sourcePoint" />
            <mxPoint x="640" y="290" as="targetPoint" />
          </mxGeometry>
        </mxCell>
      </root>
    </mxGraphModel>
  </diagram>
</mxfile>
